<mxfile host="app.diagrams.net" modified="2021-02-11T16:00:52.651Z" agent="5.0 (Windows NT 10.0; Win64; x64) AppleWebKit/537.36 (KHTML, like Gecko) Chrome/88.0.4324.150 Safari/537.36" etag="VQWe9ZiM3al23V9K32E6" version="13.9.2" type="github">
  <diagram id="R2lEEEUBdFMjLlhIrx00" name="Page-1">
    <mxGraphModel dx="1422" dy="762" grid="1" gridSize="10" guides="1" tooltips="1" connect="1" arrows="1" fold="1" page="1" pageScale="1" pageWidth="850" pageHeight="1100" math="0" shadow="0" extFonts="Permanent Marker^https://fonts.googleapis.com/css?family=Permanent+Marker">
      <root>
        <mxCell id="0" />
        <mxCell id="1" parent="0" />
        <mxCell id="jJEyOqjCULsE3GmRYOZU-82" style="edgeStyle=orthogonalEdgeStyle;rounded=0;orthogonalLoop=1;jettySize=auto;html=1;entryX=-0.008;entryY=0.117;entryDx=0;entryDy=0;entryPerimeter=0;" edge="1" parent="1" source="jJEyOqjCULsE3GmRYOZU-1" target="jJEyOqjCULsE3GmRYOZU-42">
          <mxGeometry relative="1" as="geometry" />
        </mxCell>
        <mxCell id="jJEyOqjCULsE3GmRYOZU-1" value="Music band" style="shape=table;startSize=30;container=1;collapsible=1;childLayout=tableLayout;fixedRows=1;rowLines=0;fontStyle=1;align=center;resizeLast=1;" vertex="1" parent="1">
          <mxGeometry x="60" y="60" width="260" height="300" as="geometry" />
        </mxCell>
        <mxCell id="jJEyOqjCULsE3GmRYOZU-2" value="" style="shape=partialRectangle;collapsible=0;dropTarget=0;pointerEvents=0;fillColor=none;top=0;left=0;bottom=1;right=0;points=[[0,0.5],[1,0.5]];portConstraint=eastwest;" vertex="1" parent="jJEyOqjCULsE3GmRYOZU-1">
          <mxGeometry y="30" width="260" height="30" as="geometry" />
        </mxCell>
        <mxCell id="jJEyOqjCULsE3GmRYOZU-3" value="PK" style="shape=partialRectangle;connectable=0;fillColor=none;top=0;left=0;bottom=0;right=0;fontStyle=1;overflow=hidden;" vertex="1" parent="jJEyOqjCULsE3GmRYOZU-2">
          <mxGeometry width="30" height="30" as="geometry" />
        </mxCell>
        <mxCell id="jJEyOqjCULsE3GmRYOZU-4" value="BandID" style="shape=partialRectangle;connectable=0;fillColor=none;top=0;left=0;bottom=0;right=0;align=left;spacingLeft=6;fontStyle=5;overflow=hidden;" vertex="1" parent="jJEyOqjCULsE3GmRYOZU-2">
          <mxGeometry x="30" width="230" height="30" as="geometry" />
        </mxCell>
        <mxCell id="jJEyOqjCULsE3GmRYOZU-5" value="" style="shape=partialRectangle;collapsible=0;dropTarget=0;pointerEvents=0;fillColor=none;top=0;left=0;bottom=0;right=0;points=[[0,0.5],[1,0.5]];portConstraint=eastwest;" vertex="1" parent="jJEyOqjCULsE3GmRYOZU-1">
          <mxGeometry y="60" width="260" height="30" as="geometry" />
        </mxCell>
        <mxCell id="jJEyOqjCULsE3GmRYOZU-6" value="" style="shape=partialRectangle;connectable=0;fillColor=none;top=0;left=0;bottom=0;right=0;editable=1;overflow=hidden;" vertex="1" parent="jJEyOqjCULsE3GmRYOZU-5">
          <mxGeometry width="30" height="30" as="geometry" />
        </mxCell>
        <mxCell id="jJEyOqjCULsE3GmRYOZU-7" value="Original name" style="shape=partialRectangle;connectable=0;fillColor=none;top=0;left=0;bottom=0;right=0;align=left;spacingLeft=6;overflow=hidden;" vertex="1" parent="jJEyOqjCULsE3GmRYOZU-5">
          <mxGeometry x="30" width="230" height="30" as="geometry" />
        </mxCell>
        <mxCell id="jJEyOqjCULsE3GmRYOZU-8" value="" style="shape=partialRectangle;collapsible=0;dropTarget=0;pointerEvents=0;fillColor=none;top=0;left=0;bottom=0;right=0;points=[[0,0.5],[1,0.5]];portConstraint=eastwest;" vertex="1" parent="jJEyOqjCULsE3GmRYOZU-1">
          <mxGeometry y="90" width="260" height="30" as="geometry" />
        </mxCell>
        <mxCell id="jJEyOqjCULsE3GmRYOZU-9" value="" style="shape=partialRectangle;connectable=0;fillColor=none;top=0;left=0;bottom=0;right=0;editable=1;overflow=hidden;" vertex="1" parent="jJEyOqjCULsE3GmRYOZU-8">
          <mxGeometry width="30" height="30" as="geometry" />
        </mxCell>
        <mxCell id="jJEyOqjCULsE3GmRYOZU-10" value="Name on Czech" style="shape=partialRectangle;connectable=0;fillColor=none;top=0;left=0;bottom=0;right=0;align=left;spacingLeft=6;overflow=hidden;" vertex="1" parent="jJEyOqjCULsE3GmRYOZU-8">
          <mxGeometry x="30" width="230" height="30" as="geometry" />
        </mxCell>
        <mxCell id="jJEyOqjCULsE3GmRYOZU-11" value="" style="shape=partialRectangle;collapsible=0;dropTarget=0;pointerEvents=0;fillColor=none;top=0;left=0;bottom=0;right=0;points=[[0,0.5],[1,0.5]];portConstraint=eastwest;" vertex="1" parent="jJEyOqjCULsE3GmRYOZU-1">
          <mxGeometry y="120" width="260" height="30" as="geometry" />
        </mxCell>
        <mxCell id="jJEyOqjCULsE3GmRYOZU-12" value="" style="shape=partialRectangle;connectable=0;fillColor=none;top=0;left=0;bottom=0;right=0;editable=1;overflow=hidden;" vertex="1" parent="jJEyOqjCULsE3GmRYOZU-11">
          <mxGeometry width="30" height="30" as="geometry" />
        </mxCell>
        <mxCell id="jJEyOqjCULsE3GmRYOZU-13" value="Genre" style="shape=partialRectangle;connectable=0;fillColor=none;top=0;left=0;bottom=0;right=0;align=left;spacingLeft=6;overflow=hidden;" vertex="1" parent="jJEyOqjCULsE3GmRYOZU-11">
          <mxGeometry x="30" width="230" height="30" as="geometry" />
        </mxCell>
        <mxCell id="jJEyOqjCULsE3GmRYOZU-29" value="Photo" style="shape=partialRectangle;connectable=0;fillColor=none;top=0;left=0;bottom=0;right=0;align=left;spacingLeft=6;overflow=hidden;" vertex="1" parent="1">
          <mxGeometry x="90" y="210" width="150" height="30" as="geometry" />
        </mxCell>
        <mxCell id="jJEyOqjCULsE3GmRYOZU-30" value="List of performances on festival" style="shape=partialRectangle;connectable=0;fillColor=none;top=0;left=0;bottom=0;right=0;align=left;spacingLeft=6;overflow=hidden;" vertex="1" parent="1">
          <mxGeometry x="90" y="330" width="210" height="30" as="geometry" />
        </mxCell>
        <mxCell id="jJEyOqjCULsE3GmRYOZU-31" value="Short programm description" style="shape=partialRectangle;connectable=0;fillColor=none;top=0;left=0;bottom=0;right=0;align=left;spacingLeft=6;overflow=hidden;" vertex="1" parent="1">
          <mxGeometry x="90" y="300" width="180" height="30" as="geometry" />
        </mxCell>
        <mxCell id="jJEyOqjCULsE3GmRYOZU-32" value="Band description (long text description)" style="shape=partialRectangle;connectable=0;fillColor=none;top=0;left=0;bottom=0;right=0;align=left;spacingLeft=6;overflow=hidden;" vertex="1" parent="1">
          <mxGeometry x="90" y="270" width="250" height="30" as="geometry" />
        </mxCell>
        <mxCell id="jJEyOqjCULsE3GmRYOZU-33" value="Country of origin" style="shape=partialRectangle;connectable=0;fillColor=none;top=0;left=0;bottom=0;right=0;align=left;spacingLeft=6;overflow=hidden;" vertex="1" parent="1">
          <mxGeometry x="90" y="240" width="150" height="30" as="geometry" />
        </mxCell>
        <mxCell id="jJEyOqjCULsE3GmRYOZU-42" value="Stage" style="shape=table;startSize=30;container=1;collapsible=1;childLayout=tableLayout;fixedRows=1;rowLines=0;fontStyle=1;align=center;resizeLast=1;" vertex="1" parent="1">
          <mxGeometry x="490" y="60" width="240" height="180" as="geometry" />
        </mxCell>
        <mxCell id="jJEyOqjCULsE3GmRYOZU-43" value="" style="shape=partialRectangle;collapsible=0;dropTarget=0;pointerEvents=0;fillColor=none;top=0;left=0;bottom=1;right=0;points=[[0,0.5],[1,0.5]];portConstraint=eastwest;" vertex="1" parent="jJEyOqjCULsE3GmRYOZU-42">
          <mxGeometry y="30" width="240" height="30" as="geometry" />
        </mxCell>
        <mxCell id="jJEyOqjCULsE3GmRYOZU-44" value="PK" style="shape=partialRectangle;connectable=0;fillColor=none;top=0;left=0;bottom=0;right=0;fontStyle=1;overflow=hidden;" vertex="1" parent="jJEyOqjCULsE3GmRYOZU-43">
          <mxGeometry width="30" height="30" as="geometry" />
        </mxCell>
        <mxCell id="jJEyOqjCULsE3GmRYOZU-45" value="StageID" style="shape=partialRectangle;connectable=0;fillColor=none;top=0;left=0;bottom=0;right=0;align=left;spacingLeft=6;fontStyle=5;overflow=hidden;" vertex="1" parent="jJEyOqjCULsE3GmRYOZU-43">
          <mxGeometry x="30" width="210" height="30" as="geometry" />
        </mxCell>
        <mxCell id="jJEyOqjCULsE3GmRYOZU-46" value="" style="shape=partialRectangle;collapsible=0;dropTarget=0;pointerEvents=0;fillColor=none;top=0;left=0;bottom=0;right=0;points=[[0,0.5],[1,0.5]];portConstraint=eastwest;" vertex="1" parent="jJEyOqjCULsE3GmRYOZU-42">
          <mxGeometry y="60" width="240" height="30" as="geometry" />
        </mxCell>
        <mxCell id="jJEyOqjCULsE3GmRYOZU-47" value="" style="shape=partialRectangle;connectable=0;fillColor=none;top=0;left=0;bottom=0;right=0;editable=1;overflow=hidden;" vertex="1" parent="jJEyOqjCULsE3GmRYOZU-46">
          <mxGeometry width="30" height="30" as="geometry" />
        </mxCell>
        <mxCell id="jJEyOqjCULsE3GmRYOZU-48" value="Name" style="shape=partialRectangle;connectable=0;fillColor=none;top=0;left=0;bottom=0;right=0;align=left;spacingLeft=6;overflow=hidden;" vertex="1" parent="jJEyOqjCULsE3GmRYOZU-46">
          <mxGeometry x="30" width="210" height="30" as="geometry" />
        </mxCell>
        <mxCell id="jJEyOqjCULsE3GmRYOZU-49" value="" style="shape=partialRectangle;collapsible=0;dropTarget=0;pointerEvents=0;fillColor=none;top=0;left=0;bottom=0;right=0;points=[[0,0.5],[1,0.5]];portConstraint=eastwest;" vertex="1" parent="jJEyOqjCULsE3GmRYOZU-42">
          <mxGeometry y="90" width="240" height="30" as="geometry" />
        </mxCell>
        <mxCell id="jJEyOqjCULsE3GmRYOZU-50" value="" style="shape=partialRectangle;connectable=0;fillColor=none;top=0;left=0;bottom=0;right=0;editable=1;overflow=hidden;" vertex="1" parent="jJEyOqjCULsE3GmRYOZU-49">
          <mxGeometry width="30" height="30" as="geometry" />
        </mxCell>
        <mxCell id="jJEyOqjCULsE3GmRYOZU-51" value="Description" style="shape=partialRectangle;connectable=0;fillColor=none;top=0;left=0;bottom=0;right=0;align=left;spacingLeft=6;overflow=hidden;" vertex="1" parent="jJEyOqjCULsE3GmRYOZU-49">
          <mxGeometry x="30" width="210" height="30" as="geometry" />
        </mxCell>
        <mxCell id="jJEyOqjCULsE3GmRYOZU-52" value="" style="shape=partialRectangle;collapsible=0;dropTarget=0;pointerEvents=0;fillColor=none;top=0;left=0;bottom=0;right=0;points=[[0,0.5],[1,0.5]];portConstraint=eastwest;" vertex="1" parent="jJEyOqjCULsE3GmRYOZU-42">
          <mxGeometry y="120" width="240" height="30" as="geometry" />
        </mxCell>
        <mxCell id="jJEyOqjCULsE3GmRYOZU-53" value="" style="shape=partialRectangle;connectable=0;fillColor=none;top=0;left=0;bottom=0;right=0;editable=1;overflow=hidden;" vertex="1" parent="jJEyOqjCULsE3GmRYOZU-52">
          <mxGeometry width="30" height="30" as="geometry" />
        </mxCell>
        <mxCell id="jJEyOqjCULsE3GmRYOZU-54" value="Photo" style="shape=partialRectangle;connectable=0;fillColor=none;top=0;left=0;bottom=0;right=0;align=left;spacingLeft=6;overflow=hidden;" vertex="1" parent="jJEyOqjCULsE3GmRYOZU-52">
          <mxGeometry x="30" width="210" height="30" as="geometry" />
        </mxCell>
        <mxCell id="jJEyOqjCULsE3GmRYOZU-55" value="Bands that will play on current stage" style="shape=partialRectangle;connectable=0;fillColor=none;top=0;left=0;bottom=0;right=0;align=left;spacingLeft=6;overflow=hidden;" vertex="1" parent="1">
          <mxGeometry x="520" y="210" width="210" height="30" as="geometry" />
        </mxCell>
        <mxCell id="jJEyOqjCULsE3GmRYOZU-66" value="Festival programm" style="shape=table;startSize=30;container=1;collapsible=1;childLayout=tableLayout;fixedRows=1;rowLines=0;fontStyle=1;align=center;resizeLast=1;" vertex="1" parent="1">
          <mxGeometry x="470" y="440" width="240" height="180" as="geometry" />
        </mxCell>
        <mxCell id="jJEyOqjCULsE3GmRYOZU-67" value="" style="shape=partialRectangle;collapsible=0;dropTarget=0;pointerEvents=0;fillColor=none;top=0;left=0;bottom=1;right=0;points=[[0,0.5],[1,0.5]];portConstraint=eastwest;" vertex="1" parent="jJEyOqjCULsE3GmRYOZU-66">
          <mxGeometry y="30" width="240" height="30" as="geometry" />
        </mxCell>
        <mxCell id="jJEyOqjCULsE3GmRYOZU-68" value="PK" style="shape=partialRectangle;connectable=0;fillColor=none;top=0;left=0;bottom=0;right=0;fontStyle=1;overflow=hidden;" vertex="1" parent="jJEyOqjCULsE3GmRYOZU-67">
          <mxGeometry width="30" height="30" as="geometry" />
        </mxCell>
        <mxCell id="jJEyOqjCULsE3GmRYOZU-69" value="StageID" style="shape=partialRectangle;connectable=0;fillColor=none;top=0;left=0;bottom=0;right=0;align=left;spacingLeft=6;fontStyle=5;overflow=hidden;" vertex="1" parent="jJEyOqjCULsE3GmRYOZU-67">
          <mxGeometry x="30" width="210" height="30" as="geometry" />
        </mxCell>
        <mxCell id="jJEyOqjCULsE3GmRYOZU-70" value="" style="shape=partialRectangle;collapsible=0;dropTarget=0;pointerEvents=0;fillColor=none;top=0;left=0;bottom=0;right=0;points=[[0,0.5],[1,0.5]];portConstraint=eastwest;" vertex="1" parent="jJEyOqjCULsE3GmRYOZU-66">
          <mxGeometry y="60" width="240" height="30" as="geometry" />
        </mxCell>
        <mxCell id="jJEyOqjCULsE3GmRYOZU-71" value="FK" style="shape=partialRectangle;connectable=0;fillColor=none;top=0;left=0;bottom=0;right=0;editable=1;overflow=hidden;" vertex="1" parent="jJEyOqjCULsE3GmRYOZU-70">
          <mxGeometry width="30" height="30" as="geometry" />
        </mxCell>
        <mxCell id="jJEyOqjCULsE3GmRYOZU-72" value="Stages" style="shape=partialRectangle;connectable=0;fillColor=none;top=0;left=0;bottom=0;right=0;align=left;spacingLeft=6;overflow=hidden;" vertex="1" parent="jJEyOqjCULsE3GmRYOZU-70">
          <mxGeometry x="30" width="210" height="30" as="geometry" />
        </mxCell>
        <mxCell id="jJEyOqjCULsE3GmRYOZU-73" value="" style="shape=partialRectangle;collapsible=0;dropTarget=0;pointerEvents=0;fillColor=none;top=0;left=0;bottom=0;right=0;points=[[0,0.5],[1,0.5]];portConstraint=eastwest;" vertex="1" parent="jJEyOqjCULsE3GmRYOZU-66">
          <mxGeometry y="90" width="240" height="30" as="geometry" />
        </mxCell>
        <mxCell id="jJEyOqjCULsE3GmRYOZU-74" value="FK" style="shape=partialRectangle;connectable=0;fillColor=none;top=0;left=0;bottom=0;right=0;editable=1;overflow=hidden;" vertex="1" parent="jJEyOqjCULsE3GmRYOZU-73">
          <mxGeometry width="30" height="30" as="geometry" />
        </mxCell>
        <mxCell id="jJEyOqjCULsE3GmRYOZU-75" value="Music bands" style="shape=partialRectangle;connectable=0;fillColor=none;top=0;left=0;bottom=0;right=0;align=left;spacingLeft=6;overflow=hidden;" vertex="1" parent="jJEyOqjCULsE3GmRYOZU-73">
          <mxGeometry x="30" width="210" height="30" as="geometry" />
        </mxCell>
        <mxCell id="jJEyOqjCULsE3GmRYOZU-76" value="" style="shape=partialRectangle;collapsible=0;dropTarget=0;pointerEvents=0;fillColor=none;top=0;left=0;bottom=0;right=0;points=[[0,0.5],[1,0.5]];portConstraint=eastwest;" vertex="1" parent="jJEyOqjCULsE3GmRYOZU-66">
          <mxGeometry y="120" width="240" height="30" as="geometry" />
        </mxCell>
        <mxCell id="jJEyOqjCULsE3GmRYOZU-77" value="" style="shape=partialRectangle;connectable=0;fillColor=none;top=0;left=0;bottom=0;right=0;editable=1;overflow=hidden;" vertex="1" parent="jJEyOqjCULsE3GmRYOZU-76">
          <mxGeometry width="30" height="30" as="geometry" />
        </mxCell>
        <mxCell id="jJEyOqjCULsE3GmRYOZU-78" value="Time from" style="shape=partialRectangle;connectable=0;fillColor=none;top=0;left=0;bottom=0;right=0;align=left;spacingLeft=6;overflow=hidden;" vertex="1" parent="jJEyOqjCULsE3GmRYOZU-76">
          <mxGeometry x="30" width="210" height="30" as="geometry" />
        </mxCell>
        <mxCell id="jJEyOqjCULsE3GmRYOZU-84" value="0...n" style="text;html=1;strokeColor=none;fillColor=none;align=center;verticalAlign=middle;whiteSpace=wrap;rounded=0;" vertex="1" parent="1">
          <mxGeometry x="450" y="60" width="40" height="20" as="geometry" />
        </mxCell>
        <mxCell id="jJEyOqjCULsE3GmRYOZU-85" value="0...n" style="text;html=1;strokeColor=none;fillColor=none;align=center;verticalAlign=middle;whiteSpace=wrap;rounded=0;" vertex="1" parent="1">
          <mxGeometry x="320" y="190" width="40" height="20" as="geometry" />
        </mxCell>
        <mxCell id="jJEyOqjCULsE3GmRYOZU-89" value="Time to" style="shape=partialRectangle;connectable=0;fillColor=none;top=0;left=0;bottom=0;right=0;align=left;spacingLeft=6;overflow=hidden;" vertex="1" parent="1">
          <mxGeometry x="500" y="590" width="210" height="30" as="geometry" />
        </mxCell>
        <mxCell id="jJEyOqjCULsE3GmRYOZU-92" style="edgeStyle=orthogonalEdgeStyle;rounded=0;orthogonalLoop=1;jettySize=auto;html=1;entryX=1.004;entryY=0.061;entryDx=0;entryDy=0;entryPerimeter=0;exitX=1;exitY=0.5;exitDx=0;exitDy=0;" edge="1" parent="1" source="jJEyOqjCULsE3GmRYOZU-70" target="jJEyOqjCULsE3GmRYOZU-42">
          <mxGeometry relative="1" as="geometry">
            <mxPoint x="780" y="480" as="sourcePoint" />
            <Array as="points">
              <mxPoint x="780" y="515" />
              <mxPoint x="780" y="71" />
            </Array>
          </mxGeometry>
        </mxCell>
        <mxCell id="jJEyOqjCULsE3GmRYOZU-93" value="0...n" style="text;html=1;strokeColor=none;fillColor=none;align=center;verticalAlign=middle;whiteSpace=wrap;rounded=0;" vertex="1" parent="1">
          <mxGeometry x="730" y="50" width="40" height="20" as="geometry" />
        </mxCell>
        <mxCell id="jJEyOqjCULsE3GmRYOZU-94" value="0...n" style="text;html=1;strokeColor=none;fillColor=none;align=center;verticalAlign=middle;whiteSpace=wrap;rounded=0;" vertex="1" parent="1">
          <mxGeometry x="710" y="490" width="40" height="20" as="geometry" />
        </mxCell>
        <mxCell id="jJEyOqjCULsE3GmRYOZU-96" style="edgeStyle=orthogonalEdgeStyle;rounded=0;orthogonalLoop=1;jettySize=auto;html=1;exitX=0;exitY=0.5;exitDx=0;exitDy=0;entryX=0;entryY=0.067;entryDx=0;entryDy=0;entryPerimeter=0;" edge="1" parent="1" source="jJEyOqjCULsE3GmRYOZU-73" target="jJEyOqjCULsE3GmRYOZU-1">
          <mxGeometry relative="1" as="geometry">
            <Array as="points">
              <mxPoint x="10" y="545" />
              <mxPoint x="10" y="80" />
            </Array>
          </mxGeometry>
        </mxCell>
        <mxCell id="jJEyOqjCULsE3GmRYOZU-97" value="0...n" style="text;html=1;strokeColor=none;fillColor=none;align=center;verticalAlign=middle;whiteSpace=wrap;rounded=0;" vertex="1" parent="1">
          <mxGeometry x="20" y="50" width="40" height="20" as="geometry" />
        </mxCell>
        <mxCell id="jJEyOqjCULsE3GmRYOZU-98" value="0...n" style="text;html=1;strokeColor=none;fillColor=none;align=center;verticalAlign=middle;whiteSpace=wrap;rounded=0;" vertex="1" parent="1">
          <mxGeometry x="425" y="520" width="40" height="20" as="geometry" />
        </mxCell>
      </root>
    </mxGraphModel>
  </diagram>
</mxfile>
